<?xml version="1.0"?>
<svg xmlns:rdf="http://www.w3.org/1999/02/22-rdf-syntax-ns#" xmlns="http://www.w3.org/2000/svg" xmlns:cc="http://web.resource.org/cc/" xmlns:xlink="http://www.w3.org/1999/xlink" xmlns:dc="http://purl.org/dc/elements/1.1/" xmlns:svg="http://www.w3.org/2000/svg" id="svg2" viewBox="0 0 240.21 463.97" version="1.0">
  <defs id="defs5">
    <linearGradient id="linearGradient9466">
      <stop id="stop9468" stop-color="#6d6d6d" offset="0"/>
      <stop id="stop9470" stop-color="#858585" stop-opacity="0" offset="1"/>
    </linearGradient>
    <radialGradient id="radialGradient2517" gradientUnits="userSpaceOnUse" cy="525.58" cx="272.09" gradientTransform="matrix(1.9442 0 0 .85711 -228.99 28.032)" r="11.344">
      <stop id="stop12141" stop-color="#5e5e5e" offset="0"/>
      <stop id="stop12143" stop-color="#555" stop-opacity=".9098" offset="1"/>
    </radialGradient>
    <radialGradient id="radialGradient2520" gradientUnits="userSpaceOnUse" cy="502.32" cx="312.52" gradientTransform="matrix(1.9442 0 0 1.6535 -228.99 -397.32)" r="11.818">
      <stop id="stop13032" stop-color="#ff8282" offset="0"/>
      <stop id="stop13034" stop-color="#ff2c2c" offset="1"/>
    </radialGradient>
    <radialGradient id="radialGradient2523" gradientUnits="userSpaceOnUse" cy="502.32" cx="232.52" gradientTransform="matrix(1.9442 0 0 1.6535 -228.99 -397.32)" r="11.818">
      <stop id="stop13024" stop-color="#47ffa4" offset="0"/>
      <stop id="stop13026" stop-color="#00d66a" offset="1"/>
    </radialGradient>
    <radialGradient id="radialGradient2527" gradientUnits="userSpaceOnUse" cy="502.32" cx="272.09" gradientTransform="matrix(1.9442 0 0 1.1341 -228.99 -136.39)" r="17.531">
      <stop id="stop15661" stop-color="#919b87" offset="0"/>
      <stop id="stop15663" stop-color="#d3d7cf" offset="1"/>
    </radialGradient>
    <linearGradient id="linearGradient2532" y2="398.24" gradientUnits="userSpaceOnUse" x2="308.71" gradientTransform="matrix(1.9442 0 0 1.9442 -228.99 -543.31)" y1="473.78" x1="177.87">
      <stop id="stop42070" stop-color="#fff" offset="0"/>
      <stop id="stop42072" stop-color="#fff" stop-opacity="0" offset="1"/>
    </linearGradient>
    <linearGradient id="linearGradient2536" y2="465.11" gradientUnits="userSpaceOnUse" x2="299.16" gradientTransform="matrix(1.9442 0 0 1.9442 -228.99 -543.31)" y1="400.98" x1="232.55">
      <stop id="stop34942" stop-color="#888a85" offset="0"/>
      <stop id="stop34944" stop-color="#a0a29e" offset="1"/>
    </linearGradient>
    <linearGradient id="linearGradient2539" y2="388.78" xlink:href="#linearGradient9466" gradientUnits="userSpaceOnUse" x2="274.73" gradientTransform="matrix(1.9442 0 0 1.9442 -828.99 -1343.3)" y1="368.73" x1="274.73"/>
    <linearGradient id="linearGradient2542" y2="388.78" xlink:href="#linearGradient9466" gradientUnits="userSpaceOnUse" x2="274.73" gradientTransform="matrix(1.9442 0 0 1.9442 -828.99 -543.31)" y1="368.73" x1="274.73"/>
    <linearGradient id="linearGradient2545" y2="485.2" xlink:href="#linearGradient9466" gradientUnits="userSpaceOnUse" x2="228.38" gradientTransform="matrix(1.9442 0 0 1.9442 -828.99 -543.31)" y1="485.2" x1="209.8"/>
    <linearGradient id="linearGradient2548" y2="485.2" xlink:href="#linearGradient9466" gradientUnits="userSpaceOnUse" x2="228.38" gradientTransform="matrix(1.9442 0 0 1.9442 -228.99 -543.31)" y1="485.2" x1="209.8"/>
  </defs>
  <g id="layer4" transform="translate(-179.9 -168.02)">
    <rect id="rect1382" fill-rule="evenodd" rx="29.388" ry="29.388" height="463.97" width="240.21" y="168.02" x="179.9"/>
    <rect id="rect8583" fill-rule="evenodd" rx="29.388" ry="29.388" height="463.97" width="240.21" y="168.02" x="179.9" fill="url(#linearGradient2548)"/>
    <rect id="rect9474" transform="scale(-1,1)" fill-rule="evenodd" rx="29.388" ry="29.388" height="463.97" width="240.21" y="168.02" x="-420.1" fill="url(#linearGradient2545)"/>
    <rect id="rect9478" transform="scale(-1,1)" fill-rule="evenodd" rx="29.388" ry="29.388" height="463.97" width="240.21" y="168.02" x="-420.1" fill="url(#linearGradient2542)"/>
    <rect id="rect10355" transform="scale(-1)" fill-rule="evenodd" rx="29.388" ry="29.388" height="463.97" width="240.21" y="-631.98" x="-420.1" fill="url(#linearGradient2539)"/>
    <rect id="rect1384" fill-rule="evenodd" rx="9.7209" ry="9.7209" height="182.38" width="200.51" y="219.54" x="199.74" fill="url(#linearGradient2536)"/>
    <rect id="rect1386" fill-rule="evenodd" rx="9.7209" ry="9.7209" height="136.14" width="176.43" stroke="#eeeeec" y="254.9" x="211.78" stroke-width=".92348px" fill="#00bdc2"/>
    <path id="rect29696" d="m220.91 254.9c-5.09 0.32-9.12 4.54-9.12 9.72v116.71c0 5.38 4.34 9.72 9.72 9.72h157c5.38 0 9.72-4.34 9.72-9.72v-116.71c0-5.39-4.34-9.72-9.72-9.72h-157c-0.21 0-0.4-0.02-0.6 0zm1.27 1.52c0.16-0.02 0.33 0 0.49 0 0.2-0.02 0.34 0 0.55 0h117.63c-31.22 31.22-42.57 41.74-66.42 55.51-24.07 13.9-36.65 21.08-60.69 32.19v-78.23c0-4.9 3.69-8.94 8.44-9.47zm143.87 0h10.76c5.26 0 9.47 4.21 9.47 9.47v114.16c0 5.27-4.21 9.48-9.47 9.48h-124.59c17.75-17.75 23.89-23.26 39.26-38.63 15.66-15.66 39.01-42.56 74.57-94.48z" fill="url(#linearGradient2532)" fill-rule="evenodd"/>
    <rect id="rect1426" rx="29.388" ry="12.988" height="12.988" width="80.525" y="191.76" x="259.74" fill="#efedee"/>
    <rect id="rect1428" rx="29.388" ry="12.988" height="3.0305" width="22.945" y="196.74" x="288.53" fill="#696969"/>
    <rect id="rect1412" stroke-opacity=".51339" fill-rule="evenodd" rx="9.7209" ry="9.7209" height="38.792" width="67.196" stroke="#fff" y="413.89" x="266.4" stroke-width=".97209" fill="url(#radialGradient2527)"/>
    <rect id="rect1414" fill-rule="evenodd" fill-opacity=".35714" rx="16.892" ry="16.892" height="17.151" width="29.709" y="424.71" x="285.15" fill="#2e3436"/>
    <rect id="rect4076" stroke-opacity=".54464" fill-rule="evenodd" rx="9.7209" ry="9.7209" height="38.792" width="45.662" stroke="#fff" y="413.89" x="200.24" stroke-width=".97209" fill="url(#radialGradient2523)"/>
    <rect id="rect4082" stroke-opacity=".53125" fill-rule="evenodd" rx="9.7209" ry="9.7209" height="38.792" width="45.662" stroke="#fff" y="413.89" x="355.78" stroke-width=".97209" fill="url(#radialGradient2520)"/>
    <rect id="use10359" stroke-opacity=".25446" fill-rule="evenodd" rx="9.7209" ry="9.7209" height="19.445" width="44.108" stroke="#fff" y="468.79" x="277.95" stroke-width=".97209" fill="url(#radialGradient2517)"/>
    <use id="use10363" xlink:href="#use10359" transform="translate(77.768)" height="1052.3622" width="744.09448" y="0" x="0"/>
    <use id="use10365" xlink:href="#use10363" transform="translate(0 38.884)" height="1052.3622" width="744.09448" y="0" x="0"/>
    <use id="use10367" xlink:href="#use10365" transform="translate(-77.768)" height="1052.3622" width="744.09448" y="0" x="0"/>
    <use id="use10369" xlink:href="#use10367" transform="translate(-77.768)" height="1052.3622" width="744.09448" y="0" x="0"/>
    <use id="use10371" xlink:href="#use10369" transform="translate(0 38.884)" height="1052.3622" width="744.09448" y="0" x="0"/>
    <use id="use10373" xlink:href="#use10371" transform="translate(77.768)" height="1052.3622" width="744.09448" y="0" x="0"/>
    <use id="use10375" xlink:href="#use10373" transform="translate(77.768)" height="1052.3622" width="744.09448" y="0" x="0"/>
    <use id="use10377" xlink:href="#use10375" transform="translate(0 38.884)" height="1052.3622" width="744.09448" y="0" x="0"/>
    <use id="use10379" xlink:href="#use10377" transform="translate(-77.768)" height="1052.3622" width="744.09448" y="0" x="0"/>
    <use id="use10381" xlink:href="#use10379" transform="translate(-77.768)" height="1052.3622" width="744.09448" y="0" x="0"/>
    <use id="use11264" xlink:href="#use10359" transform="translate(-77.768)" height="1052.3622" width="744.09448" y="0" x="0"/>
    <path id="text34948" style="block-progression:tb;color:#000000;text-transform:none;text-indent:0" d="m222.75 473.65v9.22h-2.3v-4.94c0-0.71-0.02-1.14-0.05-1.29-0.04-0.14-0.13-0.25-0.29-0.32-0.15-0.08-0.49-0.12-1.02-0.12h-0.23v-1.07c1.11-0.24 1.96-0.73 2.53-1.48h1.36z" fill-opacity=".375" stroke="#fff" stroke-width=".19442" fill="#fff"/>
    <path id="use35827" style="block-progression:tb;color:#000000;text-transform:none;text-indent:0" d="m301.93 481.3v1.57h-5.06v-1.31c1.49-2.45 2.39-3.97 2.67-4.56 0.28-0.58 0.42-1.03 0.42-1.36 0-0.25-0.04-0.44-0.12-0.56-0.09-0.12-0.22-0.19-0.39-0.19-0.18 0-0.31 0.07-0.39 0.21-0.09 0.14-0.13 0.41-0.13 0.81v0.88h-2.06v-0.34c0-0.51 0.02-0.92 0.07-1.22 0.06-0.29 0.19-0.59 0.4-0.88s0.48-0.5 0.81-0.65c0.34-0.15 0.74-0.22 1.2-0.22 0.92 0 1.61 0.22 2.08 0.68 0.47 0.45 0.7 1.02 0.7 1.72 0 0.53-0.13 1.09-0.39 1.67-0.27 0.59-1.04 1.84-2.33 3.75h2.52z" fill-opacity=".375" stroke="#fff" stroke-width=".19442" fill="#fff"/>
    <path id="use35829" style="block-progression:tb;color:#000000;text-transform:none;text-indent:0" d="m379.06 477.65c0.35 0.12 0.61 0.31 0.78 0.58s0.25 0.89 0.25 1.88c0 0.73-0.08 1.3-0.25 1.71-0.16 0.4-0.45 0.71-0.86 0.92s-0.94 0.32-1.58 0.32c-0.73 0-1.3-0.13-1.72-0.37-0.41-0.25-0.69-0.55-0.82-0.9-0.13-0.36-0.19-0.97-0.19-1.85v-0.73h2.3v1.5c0 0.4 0.02 0.65 0.07 0.76s0.15 0.16 0.32 0.16 0.29-0.07 0.35-0.2c0.06-0.14 0.08-0.5 0.08-1.07v-0.64c0-0.35-0.04-0.61-0.12-0.78-0.08-0.16-0.19-0.27-0.35-0.32-0.15-0.05-0.46-0.08-0.9-0.09v-1.33c0.54 0 0.88-0.03 1.01-0.07s0.22-0.13 0.28-0.27 0.08-0.36 0.08-0.66v-0.51c0-0.33-0.03-0.54-0.1-0.64-0.06-0.1-0.17-0.16-0.31-0.16-0.16 0-0.26 0.06-0.32 0.17-0.06 0.1-0.09 0.34-0.09 0.69v0.76h-2.3v-0.79c0-0.88 0.2-1.48 0.6-1.79 0.4-0.3 1.04-0.46 1.92-0.46 1.1 0 1.84 0.21 2.23 0.64s0.59 1.03 0.59 1.79c0 0.52-0.07 0.89-0.21 1.12s-0.39 0.44-0.74 0.63z" fill-opacity=".375" stroke="#fff" stroke-width=".19442" fill="#fff"/>
    <path id="use35831" style="block-progression:tb;color:#000000;text-transform:none;text-indent:0" d="m380.26 514.99h-2.3c0-0.43-0.01-0.7-0.02-0.82 0-0.11-0.05-0.2-0.13-0.28-0.08-0.07-0.19-0.11-0.34-0.11-0.11 0-0.21 0.03-0.29 0.11-0.07 0.07-0.12 0.16-0.13 0.28-0.01 0.11-0.01 0.34-0.01 0.68v1.47c0.11-0.24 0.29-0.43 0.51-0.55 0.23-0.12 0.51-0.19 0.85-0.19 0.42 0 0.79 0.12 1.11 0.35 0.33 0.22 0.53 0.5 0.62 0.82 0.09 0.31 0.13 0.75 0.13 1.29v0.73c0 0.65-0.02 1.13-0.07 1.44-0.05 0.32-0.19 0.61-0.4 0.88s-0.51 0.47-0.88 0.62c-0.38 0.15-0.81 0.22-1.31 0.22-0.62 0-1.13-0.08-1.52-0.25-0.4-0.17-0.7-0.42-0.91-0.74-0.22-0.32-0.34-0.66-0.38-1.01s-0.05-1.04-0.05-2.06v-1.27c0-1.1 0.01-1.83 0.04-2.2 0.04-0.37 0.17-0.72 0.4-1.05 0.23-0.34 0.55-0.58 0.95-0.75 0.4-0.16 0.86-0.25 1.38-0.25 0.65 0 1.18 0.11 1.59 0.32 0.42 0.21 0.71 0.5 0.89 0.88s0.27 0.86 0.27 1.44zm-2.3 2.87c0-0.32-0.04-0.55-0.11-0.67s-0.19-0.18-0.35-0.18-0.28 0.06-0.35 0.17c-0.08 0.12-0.11 0.34-0.11 0.68v1.67c0 0.41 0.03 0.67 0.1 0.8 0.07 0.12 0.19 0.19 0.35 0.19 0.1 0 0.2-0.05 0.31-0.15s0.16-0.36 0.16-0.78v-1.73z" fill-opacity=".375" stroke="#fff" stroke-width=".19442" fill="#fff"/>
    <path id="use35833" style="block-progression:tb;color:#000000;text-transform:none;text-indent:0" d="m301.99 512.54v1.47h-2.85v1.57c0.35-0.42 0.81-0.63 1.38-0.63 0.63 0 1.11 0.17 1.43 0.53 0.33 0.35 0.49 1.04 0.49 2.05v1.31c0 0.65-0.03 1.13-0.09 1.44-0.07 0.31-0.2 0.59-0.4 0.85-0.21 0.26-0.5 0.46-0.86 0.6-0.37 0.14-0.82 0.2-1.34 0.2-0.6 0-1.12-0.1-1.57-0.31-0.45-0.2-0.77-0.51-0.96-0.92s-0.29-1.05-0.29-1.9v-0.51h2.3v0.58c0 0.6 0.03 1.02 0.07 1.27s0.18 0.38 0.43 0.38c0.11 0 0.21-0.04 0.28-0.11s0.1-0.15 0.11-0.24c0.01-0.08 0.01-0.44 0.02-1.08v-1.83c0-0.35-0.04-0.58-0.11-0.71-0.07-0.12-0.19-0.19-0.36-0.19-0.1 0-0.19 0.04-0.26 0.1-0.08 0.07-0.12 0.13-0.14 0.21-0.03 0.07-0.04 0.24-0.04 0.51h-2.27l0.09-4.64h4.94z" fill-opacity=".375" stroke="#fff" stroke-width=".19442" fill="#fff"/>
    <path id="use35835" style="block-progression:tb;color:#000000;text-transform:none;text-indent:0" d="m223.89 512.54v6.02h0.66v1.57h-0.66v1.63h-2.3v-1.63h-2.73v-1.57l1.99-6.02h3.04zm-2.3 6.02v-3.92l-1.01 3.92h1.01z" fill-opacity=".375" stroke="#fff" stroke-width=".19442" fill="#fff"/>
    <path id="use35837" style="block-progression:tb;color:#000000;text-transform:none;text-indent:0" d="m223.26 551.42v2.01l-1.47 7.21h-2.29l1.63-7.56h-2.27v-1.66h4.4z" fill-opacity=".375" stroke="#fff" stroke-width=".19442" fill="#fff"/>
    <path id="use35839" style="block-progression:tb;color:#000000;text-transform:none;text-indent:0" d="m301.36 555.41c0.34 0.14 0.6 0.34 0.78 0.62 0.18 0.27 0.27 0.91 0.27 1.93 0 0.75-0.07 1.3-0.21 1.65-0.15 0.35-0.43 0.64-0.85 0.87-0.41 0.23-0.97 0.34-1.68 0.34-0.68 0-1.22-0.11-1.62-0.33-0.4-0.21-0.68-0.5-0.86-0.86-0.17-0.35-0.26-0.95-0.26-1.78 0-0.56 0.05-1.04 0.13-1.45 0.09-0.41 0.36-0.74 0.81-0.99-0.29-0.13-0.5-0.35-0.64-0.65-0.15-0.3-0.22-0.68-0.22-1.14 0-0.79 0.22-1.38 0.66-1.78s1.1-0.6 1.98-0.6c1.01 0 1.71 0.21 2.1 0.64 0.39 0.42 0.58 1.02 0.58 1.8 0 0.5-0.06 0.86-0.19 1.08-0.12 0.22-0.39 0.44-0.78 0.65zm-1.29-1.98c0-0.31-0.03-0.52-0.09-0.62-0.05-0.1-0.16-0.15-0.31-0.15s-0.26 0.06-0.31 0.16c-0.05 0.11-0.08 0.31-0.08 0.61v0.7c0 0.28 0.03 0.47 0.09 0.58 0.06 0.1 0.16 0.16 0.31 0.16s0.25-0.06 0.31-0.16c0.05-0.11 0.08-0.32 0.08-0.65v-0.63zm0.04 3.83c0-0.35-0.03-0.58-0.11-0.7-0.07-0.12-0.18-0.17-0.34-0.17-0.15 0-0.26 0.05-0.33 0.16-0.06 0.12-0.1 0.35-0.1 0.71v1.2c0 0.4 0.04 0.66 0.12 0.77 0.07 0.11 0.19 0.17 0.35 0.17s0.27-0.06 0.33-0.17c0.05-0.12 0.08-0.38 0.08-0.79v-1.18z" fill-opacity=".375" stroke="#fff" stroke-width=".19442" fill="#fff"/>
    <path id="use35841" style="block-progression:tb;color:#000000;text-transform:none;text-indent:0" d="m374.74 558.19h2.3c0 0.43 0 0.7 0.01 0.81 0.01 0.12 0.06 0.21 0.14 0.29 0.08 0.07 0.2 0.11 0.34 0.11 0.11 0 0.21-0.04 0.29-0.11 0.07-0.07 0.12-0.16 0.12-0.28 0.01-0.11 0.02-0.34 0.02-0.69v-1.47c-0.11 0.25-0.29 0.44-0.51 0.56-0.23 0.12-0.51 0.18-0.85 0.18-0.42 0-0.8-0.11-1.12-0.34s-0.53-0.5-0.61-0.82c-0.09-0.32-0.13-0.75-0.13-1.29v-0.74c0-0.64 0.02-1.12 0.07-1.44 0.05-0.31 0.19-0.6 0.4-0.87s0.5-0.48 0.88-0.62c0.38-0.15 0.81-0.23 1.31-0.23 0.62 0 1.12 0.09 1.52 0.26 0.39 0.17 0.7 0.42 0.91 0.74 0.22 0.32 0.34 0.66 0.38 1.01 0.03 0.35 0.05 1.04 0.05 2.05v1.28c0 1.1-0.02 1.83-0.05 2.2s-0.16 0.72-0.39 1.05-0.55 0.58-0.95 0.75c-0.4 0.16-0.86 0.24-1.38 0.24-0.65 0-1.18-0.1-1.6-0.31-0.41-0.21-0.7-0.5-0.88-0.88s-0.27-0.86-0.27-1.44zm2.3-2.87c0 0.38 0.05 0.62 0.15 0.71s0.2 0.14 0.31 0.14c0.16 0 0.27-0.06 0.35-0.17 0.07-0.12 0.11-0.35 0.11-0.68v-1.67c0-0.41-0.04-0.67-0.11-0.8s-0.18-0.19-0.35-0.19c-0.1 0-0.2 0.05-0.3 0.15-0.11 0.09-0.16 0.35-0.16 0.78v1.73z" fill-opacity=".375" stroke="#fff" stroke-width=".19442" fill="#fff"/>
    <path id="use35843" style="block-progression:tb;color:#000000;text-transform:none;text-indent:0" d="m374.53 593.48h1.75l0.48-2.18h1.08l-0.48 2.18h2.02l0.47-2.18h1.08l-0.47 2.18h0.97v1.08h-1.18l-0.35 1.72h1.53v1.08h-1.74l-0.47 2.17h-1.08l0.47-2.17h-2.04l-0.45 2.17h-1.08l0.46-2.17h-0.97v-1.08h1.19l0.36-1.72h-1.55v-1.08zm2.63 1.08l-0.36 1.72h2.02l0.36-1.72h-2.02z" fill-opacity=".375" stroke="#fff" stroke-width=".19442" fill="#fff"/>
    <path id="use35845" style="block-progression:tb;color:#000000;text-transform:none;text-indent:0" d="m302.4 593.43v3.07c0 0.7-0.04 1.21-0.12 1.53-0.07 0.32-0.23 0.61-0.47 0.89s-0.53 0.48-0.87 0.6c-0.33 0.12-0.71 0.18-1.13 0.18-0.55 0-1.01-0.06-1.37-0.19-0.37-0.13-0.66-0.32-0.87-0.59-0.22-0.27-0.37-0.56-0.47-0.86-0.09-0.29-0.13-0.77-0.13-1.42v-3.21c0-0.85 0.07-1.49 0.22-1.91 0.14-0.42 0.43-0.76 0.87-1.01 0.43-0.26 0.96-0.38 1.58-0.38 0.5 0 0.96 0.09 1.35 0.26 0.4 0.18 0.7 0.39 0.9 0.65 0.2 0.25 0.33 0.54 0.4 0.86s0.11 0.83 0.11 1.53zm-2.31-0.78c0-0.49-0.02-0.8-0.07-0.92-0.04-0.12-0.16-0.18-0.33-0.18s-0.28 0.06-0.34 0.19c-0.05 0.13-0.08 0.44-0.08 0.91v4.5c0 0.54 0.02 0.86 0.08 0.97 0.05 0.11 0.16 0.16 0.33 0.16s0.28-0.06 0.33-0.19c0.06-0.13 0.08-0.42 0.08-0.87v-4.57z" fill-opacity=".375" stroke="#fff" stroke-width=".19442" fill="#fff"/>
    <path id="use35847" style="block-progression:tb;color:#000000;text-transform:none;text-indent:0" d="m221.25 592.45v2.05l1.88-0.65 0.58 1.5-1.89 0.79 1.19 1.68-1.28 0.94-1.28-1.69-1.26 1.69-1.34-0.94 1.2-1.74-1.9-0.73 0.55-1.5 1.94 0.65v-2.05h1.61z" fill-opacity=".375" stroke="#fff" stroke-width=".19442" fill="#fff"/>
  </g>
  <metadata>
    <rdf:RDF>
      <cc:Work>
        <dc:format>image/svg+xml</dc:format>
        <dc:type rdf:resource="http://purl.org/dc/dcmitype/StillImage"/>
        <cc:license rdf:resource="http://creativecommons.org/licenses/publicdomain/"/>
        <dc:publisher>
          <cc:Agent rdf:about="http://openclipart.org/">
            <dc:title>Openclipart</dc:title>
          </cc:Agent>
        </dc:publisher>
        <dc:title>mobile phone</dc:title>
        <dc:date>2007-07-18T17:00:56</dc:date>
        <dc:description>clip art, clipart, communication, communication, electronics, electronics, image, media, mobile, mobile, phone, phone, png, public domain, svg, tech, tech, </dc:description>
        <dc:source>http://openclipart.org/detail/4465/mobile-phone-by-flomar</dc:source>
        <dc:creator>
          <cc:Agent>
            <dc:title>flomar</dc:title>
          </cc:Agent>
        </dc:creator>
        <dc:subject>
          <rdf:Bag>
            <rdf:li>clip art</rdf:li>
            <rdf:li>clipart</rdf:li>
            <rdf:li>communication</rdf:li>
            <rdf:li>electronics</rdf:li>
            <rdf:li>image</rdf:li>
            <rdf:li>media</rdf:li>
            <rdf:li>mobile</rdf:li>
            <rdf:li>phone</rdf:li>
            <rdf:li>png</rdf:li>
            <rdf:li>public domain</rdf:li>
            <rdf:li>svg</rdf:li>
            <rdf:li>tech</rdf:li>
          </rdf:Bag>
        </dc:subject>
      </cc:Work>
      <cc:License rdf:about="http://creativecommons.org/licenses/publicdomain/">
        <cc:permits rdf:resource="http://creativecommons.org/ns#Reproduction"/>
        <cc:permits rdf:resource="http://creativecommons.org/ns#Distribution"/>
        <cc:permits rdf:resource="http://creativecommons.org/ns#DerivativeWorks"/>
      </cc:License>
    </rdf:RDF>
  </metadata>
</svg>
